<svg width="83" height="84" viewBox="0 0 83 84" fill="none" xmlns="http://www.w3.org/2000/svg">
<ellipse cx="41.4738" cy="42" rx="39.8122" ry="40" stroke="#252525" stroke-width="3"/>
<path d="M57.6746 31.4459L57.6747 31.446C57.8127 31.5846 57.9029 31.7875 57.9029 31.9999V60.3759C57.9029 62.2228 56.4073 63.7221 54.5748 63.7221H29.0542C27.2217 63.7221 25.7261 62.2228 25.7261 60.3759V24.3076C25.7261 22.4607 27.2217 20.9614 29.0542 20.9614H46.9186C47.1237 20.9614 47.3216 21.044 47.4666 21.1897L47.4666 21.1898L57.6746 31.4459ZM48.549 24.4859L47.6946 23.6275V24.8386V29.4358C47.6946 30.4166 48.4887 31.2178 49.4707 31.2178H54.0463H55.2494L54.4007 30.3651L48.549 24.4859ZM46.1426 23.0255V22.5255H45.6426H29.0542C28.0722 22.5255 27.2781 23.3267 27.2781 24.3076V60.3759C27.2781 61.3568 28.0722 62.158 29.0542 62.158H54.5748C55.5568 62.158 56.3508 61.3568 56.3508 60.3759V33.2819V32.7819H55.8508H49.4707C47.6382 32.7819 46.1426 31.2826 46.1426 29.4358V23.0255Z" fill="#252525" stroke="#252525"/>
<path d="M34.1584 39.0811H49.4707C49.8971 39.0811 50.2468 39.429 50.2468 39.8631C50.2468 40.2972 49.8971 40.6452 49.4707 40.6452H34.1584C33.732 40.6452 33.3823 40.2972 33.3823 39.8631C33.3823 39.429 33.732 39.0811 34.1584 39.0811Z" fill="#252525" stroke="#252525"/>
<path d="M34.1584 44.2092H49.4707C49.8971 44.2092 50.2468 44.5572 50.2468 44.9913C50.2468 45.4254 49.8971 45.7733 49.4707 45.7733H34.1584C33.732 45.7733 33.3823 45.4254 33.3823 44.9913C33.3823 44.5572 33.732 44.2092 34.1584 44.2092Z" fill="#252525" stroke="#252525"/>
<path d="M34.1584 49.3374H49.4707C49.8971 49.3374 50.2468 49.6853 50.2468 50.1195C50.2468 50.5536 49.8971 50.9015 49.4707 50.9015H34.1584C33.732 50.9015 33.3823 50.5536 33.3823 50.1195C33.3823 49.6853 33.732 49.3374 34.1584 49.3374Z" fill="#252525" stroke="#252525"/>
<path d="M34.1584 54.4658H44.3666C44.793 54.4658 45.1426 54.8138 45.1426 55.2479C45.1426 55.682 44.793 56.0299 44.3666 56.0299H34.1584C33.732 56.0299 33.3823 55.682 33.3823 55.2479C33.3823 54.8138 33.732 54.4658 34.1584 54.4658Z" fill="#252525" stroke="#252525"/>
<line y1="-1.5" x2="80.0715" y2="-1.5" transform="matrix(-0.705441 0.708769 -0.705441 -0.708769 69.7168 13.624)" stroke="#252525" stroke-width="3"/>
</svg>
