<svg width="83" height="84" viewBox="0 0 83 84" fill="none" xmlns="http://www.w3.org/2000/svg">
<ellipse cx="41.5681" cy="42" rx="39.8122" ry="40" stroke="#252525" stroke-width="3"/>
<g clip-path="url(#clip0)">
<path d="M41.5986 41.5411C44.481 41.5411 46.9766 40.5025 49.0162 38.4532C51.0552 36.4042 52.0893 33.8972 52.0893 31.0009C52.0893 28.1056 51.0556 25.5983 49.0159 23.5487C46.9762 21.5001 44.4807 20.4614 41.5986 20.4614C38.7159 20.4614 36.2207 21.5001 34.1814 23.549C32.142 25.598 31.1079 28.1053 31.1079 31.0009C31.1079 33.8972 32.142 36.4046 34.1814 38.4535C36.2213 40.5021 38.7169 41.5411 41.5986 41.5411ZM35.9864 25.3623C37.5512 23.7901 39.3868 23.0259 41.5986 23.0259C43.8101 23.0259 45.646 23.7901 47.2112 25.3623C48.776 26.9348 49.5369 28.7794 49.5369 31.0009C49.5369 33.2232 48.776 35.0674 47.2112 36.6399C45.646 38.2125 43.8101 38.9767 41.5986 38.9767C39.3875 38.9767 37.5519 38.2121 35.9864 36.6399C34.4213 35.0678 33.6603 33.2232 33.6603 31.0009C33.6603 28.7794 34.4213 26.9348 35.9864 25.3623Z" fill="#252525"/>
<path d="M59.9544 54.1113C59.8956 53.2586 59.7766 52.3284 59.6015 51.3462C59.4247 50.3566 59.1971 49.4211 58.9246 48.5661C58.6428 47.6823 58.2603 46.8096 57.7868 45.9733C57.296 45.1052 56.7191 44.3493 56.0718 43.7273C55.3949 43.0766 54.5661 42.5535 53.6078 42.1719C52.6528 41.7923 51.5944 41.5999 50.4622 41.5999C50.0176 41.5999 49.5876 41.7832 48.7572 42.3264C48.2461 42.6613 47.6483 43.0486 46.9811 43.4769C46.4105 43.8422 45.6376 44.1844 44.6829 44.4942C43.7514 44.7971 42.8057 44.9506 41.8719 44.9506C40.9388 44.9506 39.9931 44.7971 39.061 44.4942C38.1073 44.1847 37.3341 43.8425 36.7645 43.4773C36.1035 43.0529 35.5054 42.6656 34.9867 42.3261C34.1569 41.7829 33.7269 41.5996 33.2823 41.5996C32.1498 41.5996 31.0918 41.7923 30.1371 42.1722C29.1794 42.5531 28.3503 43.0763 27.6728 43.7277C27.0254 44.35 26.4486 45.1055 25.9581 45.9733C25.4852 46.8096 25.1024 47.682 24.8206 48.5664C24.5485 49.4214 24.3209 50.3566 24.1441 51.3462C23.9686 52.3271 23.85 53.2576 23.7912 54.1123C23.7333 54.9479 23.7041 55.8177 23.7041 56.6964C23.7041 58.9807 24.4269 60.83 25.8521 62.1939C27.2597 63.5397 29.1219 64.2221 31.3872 64.2221H52.3593C54.624 64.2221 56.4862 63.5397 57.8941 62.1939C59.3197 60.831 60.0424 58.9811 60.0424 56.6961C60.0421 55.8143 60.0125 54.9446 59.9544 54.1113ZM56.1343 60.3359C55.2042 61.2253 53.9693 61.6577 52.359 61.6577H31.3872C29.7766 61.6577 28.5417 61.2253 27.612 60.3362C26.6998 59.4638 26.2565 58.2729 26.2565 56.6964C26.2565 55.8764 26.2834 55.0668 26.3372 54.2896C26.3898 53.527 26.4971 52.6893 26.6563 51.7992C26.8134 50.9202 27.0135 50.0952 27.2514 49.3483C27.4797 48.6322 27.7911 47.923 28.1772 47.24C28.5457 46.5889 28.9697 46.0304 29.4376 45.5803C29.8752 45.1593 30.4269 44.8147 31.0768 44.5563C31.678 44.3173 32.3535 44.1864 33.0869 44.1667C33.1763 44.2145 33.3355 44.3056 33.5934 44.4745C34.1181 44.8181 34.7228 45.21 35.3914 45.6391C36.1451 46.1218 37.1161 46.5579 38.2761 46.9341C39.4621 47.3194 40.6717 47.5151 41.8723 47.5151C43.0729 47.5151 44.2828 47.3194 45.4681 46.9345C46.6292 46.5575 47.5998 46.1218 48.3545 45.6384C49.0387 45.199 49.6265 44.8184 50.1512 44.4745C50.4091 44.3059 50.5682 44.2145 50.6576 44.1667C51.3913 44.1864 52.0669 44.3173 52.6684 44.5563C53.318 44.8147 53.8696 45.1596 54.3073 45.5803C54.7752 46.03 55.1992 46.5886 55.5677 47.2403C55.9542 47.923 56.2659 48.6325 56.4938 49.348C56.7321 50.0959 56.9324 50.9205 57.0893 51.7989C57.2481 52.6907 57.3558 53.5287 57.4083 54.2899V54.2906C57.4625 55.0648 57.4897 55.8741 57.49 56.6964C57.4897 58.2733 57.0464 59.4638 56.1343 60.3359Z" fill="#252525"/>
</g>
<rect x="20.1313" y="20.4614" width="43.5552" height="43.7607" stroke="#252525"/>
<line y1="-1.5" x2="80.0715" y2="-1.5" transform="matrix(-0.705441 0.708769 -0.705441 -0.708769 69.811 13.624)" stroke="#252525" stroke-width="3"/>
<defs>
<clipPath id="clip0">
</clipPath>
</defs>
</svg>
