<svg xmlns="http://www.w3.org/2000/svg" width="93" height="21" fill="none" viewBox="0 0 93 21">
  <path class="logo-shield" fill-rule="evenodd" d="M19.906 13.48c.607-1.936.633-4.01.075-5.961a10.276 10.276 0 00-3.214-4.998A10.055 10.055 0 005.554 1.263a10.205 10.205 0 00-4.219 4.165 10.361 10.361 0 00.973 11.366 10.15 10.15 0 004.863 3.369 10.05 10.05 0 007.735-.677 10.237 10.237 0 005-6.007z" clip-rule="evenodd"/>
  <mask id="a" width="21" height="21" x="0" y="0" maskUnits="userSpaceOnUse">
    <path class="logo-shield" fill-rule="evenodd" d="M19.906 13.48c.607-1.936.633-4.01.075-5.961a10.276 10.276 0 00-3.214-4.998A10.055 10.055 0 005.554 1.263a10.205 10.205 0 00-4.219 4.165 10.361 10.361 0 00.973 11.366 10.15 10.15 0 004.863 3.369 10.05 10.05 0 007.735-.677 10.237 10.237 0 005-6.007z" clip-rule="evenodd"/>
  </mask>
  <g mask="url(#a)">
    <path class="logo-sword" fill-rule="evenodd" stroke-miterlimit="22.92" stroke-width=".446" d="M11.549 2.866c-.635 1.98-1.25 3.78-1.89 5.758-1.619-.623-4.67-.378-6.44.482.239.558.768 1.852.848 2.034 3.308-1.402 7.75-.522 10.446 3.41.793-.321 1.405-.536 2.192-.859-1.343-2.23-3.126-3.652-5.018-4.423.65-1.941 1.123-3.85 1.773-5.775.384-.48.514-.641.777-.947-.517-.544-1.944-1.083-2.725-.852.038.755.033.678.037 1.172z" clip-rule="evenodd"/>
    <path class="logo-sword" fill-rule="evenodd" stroke-miterlimit="22.92" stroke-width=".446" d="M6.785 11.55c.233-.101 1.985-.128 2.51.523-.565 1.779-2.246 7.128-2.81 8.913-.82-.446-1.454-.783-2.274-1.229l2.574-8.207zM12.399 13.345c-.135-.225-1.437-1.186-2.363-.934a608.487 608.487 0 01-2.733 8.694c.924.11 1.683.117 2.607.227.498-1.607 1.988-6.38 2.489-7.987z" clip-rule="evenodd"/>
  </g>
  <path class="logo-brand" fill-rule="evenodd" d="M38.509 19.843l-1.119-2.838h-7.2l-1.119 2.838h-4.248l7.084-17.484h3.777l7.083 17.483H38.51zm-6.998-6.21h4.557L33.92 8.18l-.112-.54h-.04l-.112.54-2.146 5.454zm16.575-7.089v1.877c.675-1.255 1.711-1.877 3.112-1.877h1.52v3.368h-1.31c-.986 0-1.758.334-2.313.992-.556.657-.832 1.604-.832 2.827v6.112h-3.93V6.544h3.753zm12.88 13.313c-1.289 0-2.367-.351-3.248-1.052-.88-.701-1.314-2.085-1.314-4.139v-4.76h-2.527V6.538h2.527V2.704l3.916-.024v3.866h3.553v3.368H60.32v4.924c0 .611.135 1.052.403 1.333a1.457 1.457 0 001.078.415h2.072v3.257l-2.908.014zm11.036.425a7.578 7.578 0 01-3.277-.67 4.96 4.96 0 01-2.25-2.148c-.55-.991-.825-2.261-.824-3.81v-7.11h3.884v6.976c0 2.067.825 3.107 2.467 3.107 1.642 0 2.476-1.04 2.476-3.107V6.544h3.872v7.102c0 1.548-.275 2.817-.825 3.81a4.94 4.94 0 01-2.25 2.148 7.574 7.574 0 01-3.273.67v.008zm14.263.014c-1.279 0-2.355-.228-3.23-.684a4.641 4.641 0 01-1.941-1.765 4.627 4.627 0 01-.635-2.348l3.745.026a1.7 1.7 0 00.563 1.217c.343.298.85.45 1.518.45 1.145 0 1.717-.402 1.716-1.209a.878.878 0 00-.525-.842c-.35-.175-.932-.318-1.744-.43-1.449-.18-2.614-.61-3.49-1.283-.876-.673-1.315-1.684-1.315-3a4.22 4.22 0 01.617-2.314 3.94 3.94 0 011.775-1.477c.777-.343 1.708-.513 2.801-.513a6.931 6.931 0 012.873.566 4.593 4.593 0 011.959 1.588c.47.697.714 1.524.698 2.367l-3.825-.022a1.294 1.294 0 00-.463-.946c-.282-.233-.695-.352-1.228-.352-.463 0-.81.092-1.03.281a.91.91 0 00-.338.733.97.97 0 00.158.605c.18.173.405.29.649.34.515.13 1.038.228 1.566.293a10.6 10.6 0 012.656.688c.663.26 1.235.712 1.647 1.298.38.561.571 1.286.572 2.173 0 1.004-.252 1.846-.75 2.525a4.467 4.467 0 01-2.048 1.522c-.942.35-1.94.52-2.944.505l-.008.008z" clip-rule="evenodd"/>
</svg>

